<?xml version="1.0" encoding="UTF-8"?>
<!DOCTYPE svg PUBLIC "-//W3C//DTD SVG 1.1//EN" "http://www.w3.org/Graphics/SVG/1.1/DTD/svg11.dtd">
<!-- Creator: CorelDRAW 2020 (64-Bit 评估版) -->
<svg xmlns="http://www.w3.org/2000/svg" xml:space="preserve" width="44.6692mm" height="37.6354mm" version="1.1" style="shape-rendering:geometricPrecision; text-rendering:geometricPrecision; image-rendering:optimizeQuality; fill-rule:evenodd; clip-rule:evenodd"
viewBox="0 0 108.67 91.56"
 xmlns:xlink="http://www.w3.org/1999/xlink"
 xmlns:xodm="http://www.corel.com/coreldraw/odm/2003">
 <defs>
  <style type="text/css">
   <![CDATA[
    .str1 {stroke:#332C2B;stroke-width:0.49;stroke-miterlimit:22.9256}
    .str2 {stroke:#0AF5B6;stroke-width:0.49;stroke-miterlimit:22.9256}
    .str0 {stroke:#0B1D35;stroke-width:0.49;stroke-miterlimit:22.9256}
    .fil2 {fill:none}
    .fil1 {fill:#0B1D35}
    .fil0 {fill:#0AF5B6;fill-rule:nonzero}
   ]]>
  </style>
 </defs>
 <g id="图层_x0020_1">
  <metadata id="CorelCorpID_0Corel-Layer"/>
  <g id="_2345450182256">
   <path class="fil0 str0" d="M0.43 91.32l53.91 -90.84 53.91 90.84 -107.82 0zm26.95 -45.42m53.91 0m-26.95 45.42"/>
   <ellipse class="fil1 str0" cx="54.35" cy="25.58" rx="5.49" ry="6.01"/>
   <ellipse class="fil1 str0" cx="54.35" cy="61.69" rx="2.86" ry="3.13"/>
   <line class="fil2 str1" x1="48.86" y1="25.58" x2="51.49" y2= "61.69" />
   <line class="fil2 str0" x1="48.86" y1="25.58" x2="51.49" y2= "61.69" />
   <line class="fil2 str0" x1="59.82" y1="25.91" x2="57.19" y2= "62.02" />
   <path class="fil1 str0" d="M50.78 26.78c-1.76,1.02 -1.61,2.98 -1.18,8.95 0.44,5.97 1.17,15.96 1.53,20.96 0.36,5 0.36,5 1.32,5 0.95,0 2.86,0 3.81,0 0.95,0 0.95,0 1.39,-6.02 0.44,-6.02 1.32,-18.05 1.76,-24.07 0.44,-6.02 0.44,-6.02 -1.39,-5.97 -1.83,0.04 -5.48,0.13 -7.24,1.15z"/>
   <circle class="fil1 str2" cx="53.96" cy="75.05" r="6.29"/>
  </g>
 </g>
</svg>
