<?xml version="1.0" standalone="no"?><!DOCTYPE svg PUBLIC "-//W3C//DTD SVG 1.1//EN" "http://www.w3.org/Graphics/SVG/1.1/DTD/svg11.dtd"><svg t="1686218030792" class="icon" viewBox="0 0 1024 1024" version="1.1" xmlns="http://www.w3.org/2000/svg" p-id="3776" width="64" height="64" xmlns:xlink="http://www.w3.org/1999/xlink"><path d="M513.49414046 440.89648454l-35.68359393 35.68359393a12.6123046 12.6123046 0 1 0 17.84179697 17.88574159l35.72753931-35.72753856a12.6123046 12.6123046 0 1 0-17.88574235-17.84179696zM442.12695338 512.30761702l-101.07421918 101.07421917a12.56835921 12.56835921 0 0 0 3.7792973 21.09374949 12.65625 12.65625 0 0 0 14.01855426-3.25195252l101.07421918-101.07421918a12.6123046 12.6123046 0 0 0-17.84179696-17.84179697zM715.95019506 440.89648454l-110.56640591 110.56640591a12.56835921 12.56835921 0 0 0 8.9208981 21.53320347 12.65625 12.65625 0 0 0 8.96484425-3.6914065l110.52246052-110.56640592a12.6123046 12.6123046 0 1 0-17.84179696-17.84179696z" p-id="3777"></path><path d="M220.64257838 336.21874965H129.0605467A12.6123046 12.6123046 0 0 0 116.4921875 348.83105503v100.98632761a12.6123046 12.6123046 0 0 0 12.6123046 12.61230461h88.33007838v107.97363281c0 58.05175764 47.15332048 108.80859383 105.02929653 113.15917977l124.58496094 9.27246129c25.75195321 1.93359367 55.23925756-12.39257838 67.10449271-32.51953143l21.00585868-35.77148472c6.3720704-10.85449253 16.3476565-17.09472674 27.33398447-17.09472597s20.91796867 6.24023421 27.29003906 17.13867137l21.04980486 35.68359392c11.11816415 18.9404296 37.7929684 32.73925764 62.40234358 32.73925764 1.53808585 0 3.1201171 0 4.65820372-0.17578081l124.54101554-9.27246129C860.39843742 679.25585929 907.5078125 628.45507847 907.5078125 570.40332006V348.83105503a12.17285139 12.17285139 0 0 0-0.13183619-1.58203125v-0.39550781a12.04101597 12.04101597 0 0 0-0.30761702-1.36230503V345.09570312m-520.88378906 16.34765651v37.8808592a37.9248046 37.9248046 0 0 1-37.83691381 37.88085921H242.70312508V361.44335963h143.48144515zM141.7167967 437.20507804V361.44335963h75.76171918v75.76171841H141.7167967z m658.91601563 221.17675798l-124.54101554 9.27246051c-16.12792952 1.23046883-36.47460955-8.21777326-43.50585937-20.21484306l-20.96191407-35.68359393c-10.89843715-18.50097639-29.22363273-29.53124975-49.08691414-29.53125051-19.86328143 0-38.23242162 11.03027335-49.08691415 29.53125051l-21.00585947 35.72753855c-7.03124982 11.95312517-27.33398446 21.40136727-43.50585937 20.21484384l-124.49707014-9.31640591c-45.08789063-3.38378872-81.738281-42.80273455-81.738281-87.97851596V462.42968725h105.46874975A63.19335921 63.19335921 0 0 0 411.36523403 399.32421883v-37.8808592h470.91796927v25.26855461H449.15820321a12.6123046 12.6123046 0 1 0 0 25.2246092h433.08105469v158.46679662c0 45.17578143-36.60644497 84.59472648-81.60644557 87.97851596z" p-id="3778"></path><path d="M179.5976559 411.93652344a12.6123046 12.6123046 0 1 0 0-25.2246092 12.6123046 12.6123046 0 0 0 0 25.2246092z" p-id="3779"></path></svg>