<svg t="1680511982676" class="icon" viewBox="0 0 1024 1024" version="1.1" xmlns="http://www.w3.org/2000/svg" p-id="3047" width="16" height="16"><path d="M832 64H192a128 128 0 0 0-128 128v640a128 128 0 0 0 128 128h640a128 128 0 0 0 128-128V192a128 128 0 0 0-128-128z m64 768a64 64 0 0 1-64 64H192a64 64 0 0 1-64-64V192a64 64 0 0 1 64-64h640a64 64 0 0 1 64 64v640zM405.312 320h-160A59.392 59.392 0 0 0 192 384v256a59.392 59.392 0 0 0 53.312 64h160L512 832V192zM832 521.024a309.44 309.44 0 0 1-85.312 202.816 19.2 19.2 0 0 1-27.648 1.984 21.312 21.312 0 0 1-1.856-28.992 267.008 267.008 0 0 0 75.648-175.808A267.328 267.328 0 0 0 717.248 345.6a21.248 21.248 0 0 1 1.856-28.992 19.2 19.2 0 0 1 26.752 0.896l0.832 0.96A309.312 309.312 0 0 1 832 521.024M617.28 389.504c3.2 4.736 6.4 9.344 9.728 13.888a179.648 179.648 0 0 1 43.136 117.76 195.456 195.456 0 0 1-45.376 120.896l-7.488 10.752a19.2 19.2 0 0 1-26.496 5.248l-0.896-0.64a21.248 21.248 0 0 1-4.48-28.608l7.744-11.072a153.6 153.6 0 0 0 37.824-96.512A139.264 139.264 0 0 0 595.84 428.16q-5.312-7.232-10.368-14.656a21.12 21.12 0 0 1 4.48-28.672 19.2 19.2 0 0 1 26.56 3.584z" fill="#ffffff" p-id="3048"></path></svg>