<?xml version="1.0" standalone="no"?><!DOCTYPE svg PUBLIC "-//W3C//DTD SVG 1.1//EN" "http://www.w3.org/Graphics/SVG/1.1/DTD/svg11.dtd"><svg t="1690364616712" class="icon" viewBox="0 0 1024 1024" version="1.1" xmlns="http://www.w3.org/2000/svg" p-id="46780" xmlns:xlink="http://www.w3.org/1999/xlink" width="128" height="128"><path d="M1004.509521 512.663438c0-136.348423-58.444459-262.973089-146.09616-345.757917-92.529567-92.529567-209.406495-146.096161-345.757917-146.09616-136.348423 0-262.973089 53.573588-345.757916 146.09616-92.529567 82.784827-146.096161 209.406495-146.09616 345.757917 0 136.348423 53.573588 258.104216 146.09616 350.633783 82.784827 87.654699 209.406495 146.096161 345.757916 146.09616 136.348423 0 253.238341-58.444459 345.757917-146.09616 87.654699-92.529567 146.096161-214.27337 146.09616-350.633783zM873.022977 152.285914c92.529567 87.654699 150.965034 214.27337 150.965033 360.377524 0 141.229286-58.444459 267.84396-150.965033 365.2414-97.39844 92.529567-219.148238 146.096161-360.377524 146.096161-146.096161 0-272.712833-53.573588-360.377524-146.096161C59.738362 780.506399 1.302896 653.891725 1.302896 512.663438c0-146.096161 58.444459-272.712833 150.965033-360.377524C239.922628 59.756347 366.541299 1.32088 512.645453 1.32088c141.229286 0 262.973089 58.444459 360.377524 150.965034zM283.764465 517.530312c0-14.607618 4.870871-29.218233 14.607618-43.828848 9.742742-9.742742 24.352358-14.607618 38.95498-14.607618 14.607618 0 29.218233 4.870871 43.828848 14.607618 9.742742 14.607618 14.607618 29.218233 14.607618 43.828848 0 14.607618-4.870871 34.090103-14.607618 43.828848-14.607618 9.742742-29.218233 14.607618-43.828848 14.607618-14.607618 0-29.218233-4.870871-38.95498-14.607618-9.742742-9.742742-14.607618-29.218233-14.607618-43.828848z m457.766971 9.738745v-34.090103c-4.870871-112.013051-58.444459-219.148238-136.348423-287.329444h-24.352358c-19.478489 0-38.95498 14.607618-38.954979 38.95498 0 14.607618 29.218233 34.090103 38.954979 38.95498 53.573588 58.444459 87.654699 136.348423 87.654699 219.148237 0 97.39844-38.95498 180.180269-102.275305 238.620732-14.607618 4.870871-24.352358 19.478489-24.352358 38.954979 0 19.478489 19.478489 38.95498 38.95498 38.95498 14.607618 0 24.352358-4.870871 24.352357-4.870871 77.92095-68.184203 131.485545-170.448518 136.348423-287.329444zM473.692472 332.47018s-9.742742-9.742742-24.352358-9.742742-29.218233 14.607618-29.218233 34.090103c0 19.478489 14.607618 29.218233 19.478489 34.090104 38.95498 24.352358 68.184203 73.051078 68.184203 126.616672 0 53.573588-29.218233 102.275306-68.184203 126.616673-4.870871 4.870871-19.478489 9.742742-19.478489 34.090103 0 19.478489 14.607618 34.090103 29.218233 34.090103 14.607618 0 24.352358-9.742742 24.352358-9.742741 58.444459-38.95498 92.529567-107.135186 92.529566-185.056136s-34.090103-146.096161-92.529566-185.056136z" fill="#0CBEBD" p-id="46781"></path></svg>