<?xml version="1.0" standalone="no"?><!DOCTYPE svg PUBLIC "-//W3C//DTD SVG 1.1//EN" "http://www.w3.org/Graphics/SVG/1.1/DTD/svg11.dtd"><svg t="1688616095487" class="icon" viewBox="0 0 1024 1024" version="1.1" xmlns="http://www.w3.org/2000/svg" p-id="1571" xmlns:xlink="http://www.w3.org/1999/xlink" width="128" height="128"><path d="M419.328 213.333333l-85.333333 85.333334H170.666667v512h682.666666V298.666667h-163.328l-85.333333-85.333334H419.328zM384 128h256l85.333333 85.333333h170.666667a42.666667 42.666667 0 0 1 42.666667 42.666667v597.333333a42.666667 42.666667 0 0 1-42.666667 42.666667H128a42.666667 42.666667 0 0 1-42.666667-42.666667V256a42.666667 42.666667 0 0 1 42.666667-42.666667h170.666667l85.333333-85.333333z m27.306667 193.28a234.666667 234.666667 0 0 1 263.978666 380.586667L586.666667 537.6h74.624l0.042666-4.266667a149.333333 149.333333 0 0 0-210.261333-136.362666L411.306667 321.28z m199.552 424.96a234.666667 234.666667 0 0 1-263.68-379.946667L437.333333 533.333333H362.666667a149.333333 149.333333 0 0 0 208.469333 137.173334l39.722667 75.690666v0.042667z" p-id="1572" fill="#0CBEBD"></path></svg>