<?xml version="1.0" standalone="no"?><!DOCTYPE svg PUBLIC "-//W3C//DTD SVG 1.1//EN" "http://www.w3.org/Graphics/SVG/1.1/DTD/svg11.dtd"><svg t="1570884148803" class="icon" viewBox="0 0 1024 1024" version="1.1" xmlns="http://www.w3.org/2000/svg" p-id="4732" xmlns:xlink="http://www.w3.org/1999/xlink" width="200" height="200"><defs><style type="text/css"></style></defs><path d="M434.816 166.08h-36.768l-0.288 0.256c12 6.656 19.904 19.328 19.904 34.112l0.832 135.488H37.888V200.48c0-14.528 8.128-26.944 20.064-33.76H21.056a19.776 19.776 0 0 1-20.096-19.488v-19.584c0-10.784 8.96-19.488 20.096-19.488h20.032V147.2h16.832V63.616c0-21.536 17.952-39.04 40.128-39.04h260.704c22.144 0 40.064 17.504 40.064 39.04l-0.64 82.912h16.544V107.424h20.032c11.104 0 20.064 8.736 20.064 19.552v19.52a19.648 19.648 0 0 1-20 19.584zM158.24 317.632h140.352v-19.52H158.24v19.52z m0-39.072h140.352v-19.584H158.24v19.584z m0-39.104h140.352v-19.52H158.24v19.52zM78.016 298.112c0 10.688 8.992 19.52 20.064 19.52h20a19.84 19.84 0 0 0 20.032-19.52c0-10.88-8.96-19.584-20.032-19.584h-20a19.84 19.84 0 0 0-20.064 19.584z m280.768-214.88a19.84 19.84 0 0 0-20.032-19.616H118.08a19.808 19.808 0 0 0-20 19.616v97.632h260.704V83.232z m0 195.328h-20.032a19.744 19.744 0 0 0-20.064 19.584c0 10.688 8.96 19.52 20.064 19.52h20.032a19.84 19.84 0 0 0 20.032-19.52c0-10.88-8.96-19.584-20.032-19.584z m60.16 76.896a19.776 19.776 0 0 1-20.096 19.488H57.952a19.744 19.744 0 0 1-20.064-19.488v-19.584h381.088v19.584h-0.032z m-280.8 59.136a19.84 19.84 0 0 1-20.032 19.616h-20.032a19.84 19.84 0 0 1-20.064-19.616v-39.104h60.128v39.104z m240.672 0a19.84 19.84 0 0 1-20.032 19.616h-20.032a19.84 19.84 0 0 1-20.064-19.616v-39.104h60.16v39.104h-0.032zM1023.04 395.648c0 21.248-17.248 38.56-38.592 38.56h-332.48a38.56 38.56 0 0 1-38.528-38.56V63.136c0-21.312 17.216-38.56 38.528-38.56h332.48c21.344 0 38.592 17.248 38.592 38.56v332.512zM1023.04 950.176c0 21.28-17.248 38.56-38.592 38.56h-332.48c-21.312 0-38.528-17.28-38.528-38.56V617.664c0-21.248 17.216-38.496 38.528-38.496h332.48c21.344 0 38.592 17.248 38.592 38.496v332.512zM431.392 950.176c0 21.28-17.28 38.56-38.528 38.56H60.384c-21.248 0-38.56-17.28-38.56-38.56V617.664c0-21.248 17.312-38.496 38.56-38.496h332.512c21.248 0 38.528 17.248 38.528 38.496v332.512z" p-id="4733"></path></svg>