<svg version="1.1" xmlns="http://www.w3.org/2000/svg" xmlns:xlink="http://www.w3.org/1999/xlink" width="300" height="300"><g data-paper-data="{&quot;description&quot;:&quot;Logo for Casun AGV\n==================\n\nThis logo was generated by MarkMaker and is composed of elements designed by others.\n\nThe font is Hind Guntur SemiBold designed by Indian Type Foundry and released under the OFL license via Google Fonts: https://www.google.com/fonts/specimen/Hind Guntur. The font includes this copyright statement: Copyright (c) 2015 Indian Type Foundry (info@indiantypefoundry.com)\n\nMarkMaker uses semantic data from the Princeton University WordNet database http://wordnet.princeton.edu and font descriptions from Google Fonts https://www.google.com/fonts.\n\nThis design is inspired by designs that past users of MarkMaker have liked. As a result, it may be visually similar to past or future designs generated by the system. There is no guarantee that it is unique, original, or suitable in any way for use as a logo.\n\n&quot;}" fill="none" fill-rule="nonzero" stroke="none" stroke-width="none" stroke-linecap="butt" stroke-linejoin="miter" stroke-miterlimit="10" stroke-dasharray="" stroke-dashoffset="0" font-family="none" font-weight="none" font-size="none" text-anchor="none" style="mix-blend-mode: normal"><path d="M40,181.01936v-62.03871h220v62.03871z" fill="#449191" stroke-width="0"></path><g data-paper-data="{&quot;elementType&quot;:&quot;logo&quot;}" fill="#ffffff" stroke-width="1"><g data-paper-data="{&quot;elementType&quot;:&quot;text&quot;}"><g data-paper-data="{&quot;baseline&quot;:68.60000000000001,&quot;elementType&quot;:&quot;row&quot;}"><g data-paper-data="{&quot;baselineProportion&quot;:0.9884225759768452,&quot;fontSize&quot;:100,&quot;baseline&quot;:68.3,&quot;elementType&quot;:&quot;word&quot;}"><path d="M71.55449,162.68602c-3.83222,0 -6.9938,-1.15161 -9.48474,-3.45484c-2.49094,-2.30323 -3.73641,-5.33763 -3.73641,-9.10323c0,-3.76559 1.2327,-6.82437 3.69809,-9.17634c2.46539,-2.35197 5.63975,-3.52796 9.52306,-3.52796c2.83584,0 5.04575,0.4509 6.62974,1.35269v4.49677c-1.94166,-1.0724 -4.0877,-1.6086 -6.43813,-1.6086c-2.35043,0 -4.31125,0.76165 -5.88246,2.28495c-1.57121,1.5233 -2.35681,3.56452 -2.35681,6.12366c0,2.55914 0.7856,4.59427 2.35681,6.10538c1.57121,1.51111 3.5959,2.26667 6.07407,2.26667c2.47817,0 4.57311,-0.60932 6.28484,-1.82796v4.60645c-1.58398,0.97491 -3.80667,1.46237 -6.66806,1.46237z" data-paper-data="{&quot;elementType&quot;:&quot;letter&quot;,&quot;baseline&quot;:68.3,&quot;baselineProportion&quot;:0.9884225759768452,&quot;fontSize&quot;:100}"></path><path d="M87.57316,162.53979c-1.83946,0 -3.30209,-0.51183 -4.38789,-1.53548c-1.0858,-1.02366 -1.62869,-2.36416 -1.62869,-4.02151c0,-1.65735 0.6898,-2.98566 2.0694,-3.98495c1.3796,-0.99928 3.37235,-1.49892 5.97826,-1.49892h2.83584v-1.13333c0,-1.02366 -0.28103,-1.80358 -0.84309,-2.33979c-0.56206,-0.5362 -1.52011,-0.8043 -2.87416,-0.8043c-2.0694,0 -3.97273,0.54839 -5.71001,1.64516v-4.05806c1.45624,-0.85305 3.55119,-1.27957 6.28484,-1.27957c5.26291,0 7.89437,2.33979 7.89437,7.01936v11.84516h-4.56034v-2.23011c-0.89418,1.58423 -2.58036,2.37634 -5.05853,2.37634M89.18269,159.28602c1.02192,0 1.8203,-0.28638 2.39514,-0.85914c0.57483,-0.57276 0.86225,-1.32222 0.86225,-2.24839v-1.75484h-2.37598c-1.20076,0 -2.12049,0.23763 -2.7592,0.7129c-0.6387,0.47527 -0.95805,1.07849 -0.95805,1.80968c0,1.55986 0.94528,2.33979 2.83584,2.33979z" data-paper-data="{&quot;elementType&quot;:&quot;letter&quot;,&quot;baseline&quot;:51.6,&quot;baselineProportion&quot;:0.9923076923076922,&quot;fontSize&quot;:100}"></path><path d="M114.62862,157.05591c0,1.73047 -0.65148,3.08315 -1.95443,4.05806c-1.30295,0.97491 -3.09771,1.46237 -5.38427,1.46237c-2.28656,0 -4.17073,-0.37778 -5.65252,-1.13333v-4.02151c1.71172,1.09677 3.56396,1.64516 5.55672,1.64516c0.84309,0 1.50095,-0.15233 1.97359,-0.45699c0.47264,-0.30466 0.70896,-0.67025 0.70896,-1.09677c0,-0.42652 -0.07664,-0.76774 -0.22993,-1.02366c-0.15329,-0.25591 -0.44709,-0.50573 -0.88141,-0.74946c-0.56206,-0.31685 -1.1305,-0.59104 -1.70534,-0.82258c-0.57483,-0.23154 -0.88141,-0.3595 -0.91973,-0.38387c-0.03832,-0.02437 -0.09581,-0.04875 -0.17245,-0.07312c-0.07664,-0.02437 -0.14051,-0.04875 -0.19161,-0.07312c-2.83584,-1.21864 -4.25376,-2.97348 -4.25376,-5.26452c0,-1.70609 0.67703,-3.0466 2.03108,-4.02151c1.35405,-0.97491 3.03384,-1.46237 5.03937,-1.46237c2.00553,0 3.65977,0.2681 4.96272,0.8043v3.87527c-1.27741,-0.73118 -2.87416,-1.09677 -4.79027,-1.09677c-0.79199,0 -1.41153,0.16452 -1.85863,0.49355c-0.44709,0.32903 -0.67064,0.74946 -0.67064,1.26129c0,0.41434 0.11497,0.73118 0.3449,0.95054c0.22993,0.21935 0.42154,0.38996 0.57483,0.51183c0.15329,0.12186 0.37045,0.25591 0.65148,0.40215c0.6898,0.31685 1.21354,0.54839 1.57121,0.69462c1.76282,0.70681 3.07855,1.49283 3.94719,2.35806c0.86864,0.86523 1.30295,1.91935 1.30295,3.16237z" data-paper-data="{&quot;elementType&quot;:&quot;letter&quot;,&quot;baseline&quot;:51.300000000000004,&quot;baselineProportion&quot;:0.9903474903474904,&quot;fontSize&quot;:100}"></path><path d="M134.9777,162.39355h-4.63698v-3.03441c-1.02192,2.1448 -3.01468,3.2172 -5.97826,3.2172c-1.96721,0 -3.50009,-0.5362 -4.59866,-1.6086c-1.09857,-1.0724 -1.64785,-2.5957 -1.64785,-4.56989v-12.53979h4.59866v11.51613c0,1.16989 0.30019,2.0595 0.90057,2.66882c0.60038,0.60932 1.49457,0.91398 2.68255,0.91398c1.18799,0 2.15882,-0.42652 2.91249,-1.27957c0.75367,-0.85305 1.1305,-2.1448 1.1305,-3.87527v-9.94409h4.63698z" data-paper-data="{&quot;elementType&quot;:&quot;letter&quot;,&quot;baseline&quot;:50.7,&quot;baselineProportion&quot;:0.990234375,&quot;fontSize&quot;:100}"></path><path d="M156.82135,162.39355h-4.59866v-11.40645c0,-1.21864 -0.30658,-2.13871 -0.91973,-2.76022c-0.61315,-0.62151 -1.48179,-0.93226 -2.60591,-0.93226c-1.12412,0 -2.09495,0.4448 -2.91249,1.33441c-0.81754,0.88961 -1.22631,2.16308 -1.22631,3.82043v9.94409h-4.59866v-18.53549h4.59866v3.18065c1.09857,-2.26667 3.09132,-3.4 5.97826,-3.4c1.94166,0 3.47454,0.56057 4.59866,1.68172c1.12412,1.12115 1.68618,2.70538 1.68618,4.75269z" data-paper-data="{&quot;elementType&quot;:&quot;letter&quot;,&quot;baseline&quot;:51.300000000000004,&quot;baselineProportion&quot;:1,&quot;fontSize&quot;:100}"></path></g><g data-paper-data="{&quot;baselineProportion&quot;:0.9884726224783862,&quot;fontSize&quot;:100,&quot;baseline&quot;:68.60000000000001,&quot;elementType&quot;:&quot;word&quot;}"><path d="M171.46042,162.39355h-5.05853l8.73746,-24.64086h6.24652l8.73746,24.64086h-5.21182l-1.83946,-5.59355h-9.77216l-1.83946,5.59355M178.20513,141.18925c-0.20438,1.04803 -1.41792,4.99642 -3.64061,11.84516h7.28122c-2.12049,-6.65376 -3.33403,-10.60215 -3.64061,-11.84516z" data-paper-data="{&quot;elementType&quot;:&quot;letter&quot;,&quot;baseline&quot;:67.4,&quot;baselineProportion&quot;:1,&quot;fontSize&quot;:100}"></path><path d="M206.4869,162.68602c-4.0877,0 -7.38979,-1.13333 -9.90628,-3.4c-2.51649,-2.26667 -3.77474,-5.32545 -3.77474,-9.17634c0,-3.8509 1.29657,-6.94624 3.8897,-9.28602c2.59313,-2.33979 5.86968,-3.50968 9.82964,-3.50968c2.93803,0 5.45452,0.52401 7.54947,1.57204v4.71613c-2.35043,-1.3405 -4.8286,-2.01075 -7.4345,-2.01075c-2.60591,0 -4.70085,0.76774 -6.28484,2.30323c-1.58398,1.53548 -2.37598,3.59498 -2.37598,6.1785c0,2.58351 0.77283,4.62473 2.31849,6.12366c1.54566,1.49892 3.67254,2.24839 6.38064,2.24839c1.3285,0 2.61868,-0.21935 3.87054,-0.65806v-5.8129h-4.75195v-3.94839h9.5039v11.84516h-0.03832l0.03832,0.40215c-2.35043,1.6086 -5.28846,2.4129 -8.8141,2.4129z" data-paper-data="{&quot;elementType&quot;:&quot;letter&quot;,&quot;baseline&quot;:68.60000000000001,&quot;baselineProportion&quot;:0.9884726224783862,&quot;fontSize&quot;:100}"></path><path d="M232.85256,162.39355h-5.51839l-8.66081,-24.64086h5.25014c3.42345,10.55341 5.50562,17.37778 6.24652,20.47312c0.61315,-2.72975 1.64785,-6.28817 3.1041,-10.67527l3.21906,-9.79785h5.17349z" data-paper-data="{&quot;elementType&quot;:&quot;letter&quot;,&quot;baseline&quot;:67.4,&quot;baselineProportion&quot;:1,&quot;fontSize&quot;:100}"></path></g></g></g></g></g></svg>