<?xml version="1.0" encoding="UTF-8"?>
<!DOCTYPE svg PUBLIC "-//W3C//DTD SVG 1.1//EN" "http://www.w3.org/Graphics/SVG/1.1/DTD/svg11.dtd">
<!-- Creator: CorelDRAW 2020 (64-Bit 评估版) -->
<svg xmlns="http://www.w3.org/2000/svg" xml:space="preserve" width="36.6041mm" height="36.6059mm" version="1.1" style="shape-rendering:geometricPrecision; text-rendering:geometricPrecision; image-rendering:optimizeQuality; fill-rule:evenodd; clip-rule:evenodd"
viewBox="0 0 175 175.01"
 xmlns:xlink="http://www.w3.org/1999/xlink"
 xmlns:xodm="http://www.corel.com/coreldraw/odm/2003">
 <defs>
  <style type="text/css">
   <![CDATA[
    .str1 {stroke:#0B1D35;stroke-width:6.75;stroke-miterlimit:22.9256}
    .str0 {stroke:#0AF5B6;stroke-width:0.96;stroke-miterlimit:22.9256}
    .fil0 {fill:#0AF5B6}
    .fil1 {fill:#0B1D35}
   ]]>
  </style>
 </defs>
 <g id="图层_x0020_1">
  <metadata id="CorelCorpID_0Corel-Layer"/>
  <g id="_2345453114784">
   <g>
    <path class="fil0" d="M33.07 90.29c0,-14.06 1.85,-22.54 9.86,-34.35 0.83,-1.23 1.82,-2.64 2.82,-3.7l3.08 -3.44c9.82,-8.91 21.66,-15.75 35.89,-15.75 14.63,0 23.12,2.25 34.35,9.86 4.49,3.04 6.62,5.65 9.98,9.1 2.57,2.64 6.17,8.55 7.66,11.88 7,15.58 7.27,31.26 0.14,46.88 -7.97,17.46 -27.27,31.16 -46.55,31.16 -14.54,0 -22.81,-2.04 -34.35,-9.86 -4.52,-3.06 -6.48,-5.51 -9.98,-9.1 -1.08,-1.11 -1.94,-2.32 -2.86,-3.65 -5.43,-7.87 -10.05,-18.43 -10.05,-29.04zm4.19 -73.52c-3.65,0 -20.47,16.82 -20.47,20.47 0,2.34 1.3,3.48 2.75,5.16 0.53,0.62 0.7,0.83 1.32,1.47 6.69,6.9 7.49,5.22 3.69,12.75 -1.19,2.36 -2.25,5.03 -3.16,7.54 -3.63,10.1 -1.8,6.15 -14.35,7.05 -7.89,0.57 -6.99,7.85 -6.99,17.67 0,21 6.12,13.01 17.19,14.92 3.24,0.56 3.87,7.69 7.16,14.25 1.05,2.1 3.28,5.08 1.99,7.37l-3.85 4.07c-2.11,2.01 -5.74,5.14 -5.74,8.26 0,3.65 16.82,20.47 20.47,20.47 4.48,0 8.85,-7.28 12.03,-9.4 2.73,-1.82 8.12,2.38 14.89,4.81 10.27,3.69 6.14,1.68 7.05,14.35 0.57,7.89 7.85,6.99 17.67,6.99 21,0 13.01,-6.13 14.92,-17.19 0.52,-3.04 7.71,-4.13 14.24,-7.16 7.27,-3.37 5.47,-4.14 12.83,3.29 1.55,1.57 4.07,4.3 6.86,4.3 3.65,0 20.47,-16.82 20.47,-20.47 0,-4.5 -7.32,-8.91 -9.4,-12.03 -1.82,-2.74 2.34,-8.02 4.81,-14.89 0.83,-2.3 1.4,-6.3 3.77,-6.94 4.92,-1.32 15.01,2.76 16.78,-4.62 1.17,-4.85 0.9,-17.23 0.23,-22.37 -1.07,-8.13 -8.95,-5.14 -15.73,-5.68 -4.18,-0.33 -4.34,-5.96 -7.91,-13.96 -2.05,-4.61 -4.68,-6.18 0.3,-10.42 0.71,-0.6 0.83,-0.67 1.44,-1.35l0.86 -1.01c2.1,-2.36 -1.69,1.82 0.44,-0.49 1.64,-1.78 4.42,-3.8 4.42,-6.75 0,-3.65 -16.86,-20.47 -20.47,-20.47 -4.5,0 -8.91,7.32 -12.03,9.4 -2.73,1.82 -8.12,-2.38 -14.89,-4.81 -10.1,-3.63 -6.15,-1.8 -7.05,-14.35 -0.25,-3.44 -1.33,-5.43 -4.51,-6.2 -4.46,-1.07 -18.92,-1.1 -23.54,0 -3.1,0.74 -4.38,2.67 -4.53,6.17 -0.75,17.24 3.31,8.94 -14.57,17.54 -8.76,4.21 -5.36,2.58 -14.47,-5.22l-1 -0.86c-1.14,-0.96 -2.04,-1.67 -3.91,-1.67z"/>
    <path class="fil0" d="M79.6 70.28c4.67,6.97 21.12,6.83 11.37,21.14 -8.17,12 -16.63,-2.5 -22.54,-3 -1.06,2.2 -0.93,4.44 -0.93,6.98 0,11.1 14.16,19.94 25.07,15.74 1.77,-0.68 2.38,-1.29 4.13,0.18 4.31,3.62 14.6,15.75 18.73,18.52 4.86,-3.25 8.05,-6.17 11.7,-10.63 1.26,-1.54 2.26,-2.96 3.19,-4.72l-19.66 -19.9c1.18,-4.44 1.97,-2.75 1.97,-9.42 0,-9.88 -11.16,-18.61 -21.4,-18.61 -6.21,0 -6.7,0.42 -11.63,3.72z"/>
   </g>
   <circle class="fil0 str0" cx="96.15" cy="98.01" r="40.42"/>
  </g>
  <circle class="fil0 str1" cx="87.5" cy="87.5" r="52.29"/>
  <circle class="fil1 str1" cx="87.5" cy="87.5" r="30.2"/>
 </g>
</svg>
