<?xml version="1.0" standalone="no"?><!DOCTYPE svg PUBLIC "-//W3C//DTD SVG 1.1//EN" "http://www.w3.org/Graphics/SVG/1.1/DTD/svg11.dtd"><svg t="1690359100863" class="icon" viewBox="0 0 1024 1024" version="1.1" xmlns="http://www.w3.org/2000/svg" p-id="2275" xmlns:xlink="http://www.w3.org/1999/xlink" width="128" height="128"><path d="M953.623552 494.864384 768.631808 309.87264c-9.06752-9.06752-23.771136-9.068544-32.83968 0l-37.395456 37.395456c-9.06752 9.06752-9.06752 23.771136 0 32.83968l81.600512 81.600512L408.051712 461.708288c-12.824576 0-23.221248 10.396672-23.221248 23.221248l0 52.885504c0 12.823552 10.396672 23.221248 23.221248 23.221248l371.76832 0-81.601536 81.601536c-9.06752 9.06752-9.06752 23.77216 0 32.83968l37.395456 37.395456c9.068544 9.06752 23.77216 9.06752 32.83968 0.001024l147.771392-147.771392c0.001024-0.002048 0.003072-0.003072 0.004096-0.004096l37.39648-37.39648C962.691072 518.63552 962.691072 503.931904 953.623552 494.864384z" fill="#0CBEBD" p-id="2276"></path><path d="M634.924032 64.014336 134.736896 64.014336c-38.474752 0-69.664768 31.190016-69.664768 69.663744l0 755.390464c0 38.473728 31.188992 69.663744 69.664768 69.663744L634.924032 958.732288c38.473728 0 69.663744-31.190016 69.663744-69.663744l0-98.01216c0-12.824576-10.395648-23.222272-23.221248-23.222272l-50.332672 0c-12.823552 0-23.221248 10.396672-23.221248 23.222272l0 37.281792c-0.254976 19.016704-15.741952 34.357248-34.820096 34.357248L195.703808 862.695424c-19.236864 0-34.832384-15.594496-34.832384-34.832384L160.871424 194.074624c0-19.236864 15.594496-34.832384 34.832384-34.832384l377.289728 0c19.078144 0 34.56512 15.33952 34.820096 34.357248l0 38.38464c0 12.824576 10.396672 23.221248 23.221248 23.221248l50.332672 0c12.824576 0 23.221248-10.396672 23.221248-23.221248l0-98.306048C704.5888 95.204352 673.398784 64.014336 634.924032 64.014336z" fill="#0CBEBD" p-id="2277"></path></svg>