<?xml version="1.0" standalone="no"?><!DOCTYPE svg PUBLIC "-//W3C//DTD SVG 1.1//EN" "http://www.w3.org/Graphics/SVG/1.1/DTD/svg11.dtd"><svg t="1684400438900" class="icon" viewBox="0 0 1024 1024" version="1.1" xmlns="http://www.w3.org/2000/svg" p-id="18742" xmlns:xlink="http://www.w3.org/1999/xlink" width="48" height="48"><path d="M469.3 835.1l-67.5 54.4c-5.3 4.3-12 6.7-18.9 6.7-8.8 0-17.5-3.8-23.4-11.2-10.4-12.9-8.4-31.9 4.6-42.3l13-10.4c-58.1-10.9-110.6-28.8-151.8-52.2-29.9-16.9-53.5-36.4-70.2-57.8-18.9-24.3-28.6-50.5-28.6-77.7 0-56.9 42.1-108.7 118.6-145.9V513c0 11.1 2.9 22 8.5 31.6 2.6 4.5 5.8 8.7 9.4 12.5-48.7 25.5-76.3 57.1-76.3 87.6 0 28.7 24.2 58.2 68.2 83.1 36.2 20.5 83.1 36.3 135.6 45.8l-14.1-22.2c-8.9-14-4.8-32.6 9.2-41.5 14-8.9 32.6-4.8 41.5 9.2l48.7 76.5c8.3 12.9 5.5 29.9-6.5 39.5z m0 0" p-id="18743"></path><path d="M263.1 557c-0.1 0-0.1 0 0 0-3.7-3.7-6.9-7.9-9.5-12.4-5.5-9.6-8.5-20.5-8.5-31.6v-14.3h0.1V513c-0.1 16.6 6.5 32.3 17.9 44zM709.9 227.2l-150.7-87c-28.8-16.6-64.5-16.6-93.3 0l-150.7 87c-28.8 16.6-46.6 47.6-46.6 80.8v174c0 2 0.1 4 0.2 6 1.3 20.7 9.6 40.2 23.1 55.6 6.7 7.6 14.6 14.1 23.4 19.2l150.7 87c14.4 8.3 30.5 12.5 46.6 12.5s32.3-4.2 46.6-12.5l150.7-87c8.5-4.9 16.1-11.1 22.6-18.3 13.7-15.2 22.1-34.6 23.7-55.3 0.2-2.4 0.3-4.8 0.3-7.2V308c0.1-33.2-17.8-64.2-46.6-80.8zM479.4 597.6L357 526.9 338 516c-10.7-6.2-17.3-17.6-17.3-29.9V317.3L461 401.8c5.8 3.5 12 6.4 18.3 8.6v187.2zM493.5 348L355 264.7l140.3-81c5.3-3 11.2-4.6 17.3-4.6 6 0 11.9 1.5 17.3 4.6l145.2 83.8-144.1 81c-11.7 6.6-26 6.4-37.5-0.5z m211 138.1c0 12.3-6.6 23.8-17.3 29.9l-19.7 11.4-125.3 72.3v-188c6.8-2.1 13.3-4.9 19.6-8.4L704.5 323v163.1zM896 644.6c0 53.9-38.3 103.8-107.8 140.5-62.6 33-147.1 53.7-238 58.3h-1.5c-15.9 0-29.2-12.5-30-28.6-0.8-16.6 12-30.7 28.5-31.6 82.4-4.1 158-22.4 213-51.4 25-13.2 45.1-28.5 58.1-44.3 11.7-14.2 17.6-28.7 17.6-43 0-30.1-27-61.2-74.5-86.6h-0.1c11.9-11.7 18.9-27.9 18.9-45V500h0.1C854.9 537.2 896 588.3 896 644.6z" p-id="18744"></path><path d="M245.1 513v-14.3h-0.1l0.1 14.3c-0.1 11.1 2.9 22 8.4 31.6 2.6 4.5 5.8 8.7 9.4 12.5h0.1c-11.3-11.8-17.9-27.5-17.9-44.1z m535-13v13c0 17.1-7 33.3-18.9 45h0.1c4.1-4 7.6-8.5 10.4-13.4 5.5-9.6 8.5-20.5 8.5-31.6l-0.1-13z m0 0" fill="#333333" p-id="18745"></path></svg>