<?xml version="1.0" standalone="no"?><!DOCTYPE svg PUBLIC "-//W3C//DTD SVG 1.1//EN" "http://www.w3.org/Graphics/SVG/1.1/DTD/svg11.dtd"><svg class="icon" width="200px" height="200.00px" viewBox="0 0 1024 1024" version="1.1" xmlns="http://www.w3.org/2000/svg"><path fill="#333333" d="M191.573333 489.813333a42.666667 42.666667 0 0 1-42.666666-42.666666V221.866667a42.666667 42.666667 0 0 1 42.666666-42.666667h224.853334a42.666667 42.666667 0 0 1 0 85.333333H234.24v182.613334a42.666667 42.666667 0 0 1-42.666667 42.666666zM416.426667 883.626667H191.573333a42.666667 42.666667 0 0 1-42.666666-42.666667v-225.28a42.666667 42.666667 0 0 1 85.333333 0v182.613333h182.186667a42.666667 42.666667 0 0 1 0 85.333334zM810.666667 883.626667h-225.28a42.666667 42.666667 0 1 1 0-85.333334H768v-182.613333a42.666667 42.666667 0 0 1 85.333333 0v225.28a42.666667 42.666667 0 0 1-42.666666 42.666667zM810.666667 489.813333a42.666667 42.666667 0 0 1-42.666667-42.666666V264.533333h-182.613333a42.666667 42.666667 0 0 1 0-85.333333H810.666667a42.666667 42.666667 0 0 1 42.666666 42.666667v225.28a42.666667 42.666667 0 0 1-42.666666 42.666666zM346.026667 492.8m33.28 0l243.2 0q33.28 0 33.28 33.28l0 10.666667q0 33.28-33.28 33.28l-243.2 0q-33.28 0-33.28-33.28l0-10.666667q0-33.28 33.28-33.28Z" /></svg>