<?xml version="1.0" standalone="no"?><!DOCTYPE svg PUBLIC "-//W3C//DTD SVG 1.1//EN" "http://www.w3.org/Graphics/SVG/1.1/DTD/svg11.dtd"><svg class="icon" width="200px" height="200.00px" viewBox="0 0 1024 1024" version="1.1" xmlns="http://www.w3.org/2000/svg"><path fill="#333333" d="M234.24 489.813333a42.666667 42.666667 0 0 1-42.666667-42.666666V221.866667a42.666667 42.666667 0 0 1 42.666667-42.666667h224.853333a42.666667 42.666667 0 0 1 0 85.333333H276.906667v182.613334a42.666667 42.666667 0 0 1-42.666667 42.666666zM459.093333 883.626667H234.24a42.666667 42.666667 0 0 1-42.666667-42.666667v-225.28a42.666667 42.666667 0 0 1 85.333334 0v182.613333h182.186666a42.666667 42.666667 0 0 1 0 85.333334zM853.333333 883.626667h-225.28a42.666667 42.666667 0 1 1 0-85.333334H810.666667v-182.613333a42.666667 42.666667 0 0 1 85.333333 0v225.28a42.666667 42.666667 0 0 1-42.666667 42.666667zM853.333333 489.813333a42.666667 42.666667 0 0 1-42.666666-42.666666V264.533333h-182.613334a42.666667 42.666667 0 0 1 0-85.333333H853.333333a42.666667 42.666667 0 0 1 42.666667 42.666667v225.28a42.666667 42.666667 0 0 1-42.666667 42.666666zM388.693333 492.8m38.826667 0l232.106667 0q38.826667 0 38.826666 38.826667l0-0.426667q0 38.826667-38.826666 38.826667l-232.106667 0q-38.826667 0-38.826667-38.826667l0 0.426667q0-38.826667 38.826667-38.826667ZM505.173333 686.506667m0-38.826667l0-232.106667q0-38.826667 38.826667-38.826666l-0.426667 0q38.826667 0 38.826667 38.826666l0 232.106667q0 38.826667-38.826667 38.826667l0.426667 0q-38.826667 0-38.826667-38.826667Z" /></svg>