<?xml version="1.0" standalone="no"?><!DOCTYPE svg PUBLIC "-//W3C//DTD SVG 1.1//EN" "http://www.w3.org/Graphics/SVG/1.1/DTD/svg11.dtd"><svg t="1684828839314" class="icon" viewBox="0 0 1024 1024" version="1.1" xmlns="http://www.w3.org/2000/svg" p-id="2714" xmlns:xlink="http://www.w3.org/1999/xlink" width="48" height="48"><path d="M517.12 862.09536l-11.76576-16.31232c-9.49248-13.14816-232.82688-323.52256-262.03136-441.21088-17.41824-70.21568-1.83296-141.056 43.86816-199.48544C340.74624 136.62208 426.7008 95.75424 517.12 95.75424c90.42944 0 176.384 40.87808 229.9392 109.34272 45.70112 58.42944 61.27616 129.28 43.85792 199.48544-29.19424 117.69856-252.53888 428.06272-262.03136 441.21088L517.12 862.09536z m0-737.31072c-81.5616 0-158.96576 36.70016-207.07328 98.19136-40.0896 51.24096-53.78048 113.2544-38.56384 174.61248 24.1664 97.42336 198.38976 347.94496 245.62688 414.70976 47.23712-66.7648 221.47072-317.29664 245.61664-414.70976 15.22688-61.35808 1.536-123.37152-38.5536-174.61248-48.0768-61.4912-125.48096-98.19136-207.0528-98.19136z" p-id="2715"></path><path d="M517.12 935.82336c-203.3664 0-362.67008-63.34464-362.67008-144.19968 0-49.664 57.6512-93.34784 158.18752-119.8592l7.40352 28.0576c-84.23424 22.2208-136.5504 57.38496-136.5504 91.8016 0 54.4768 137.02144 115.17952 333.64992 115.17952 196.61824 0 333.64992-60.70272 333.64992-115.17952 0-34.4064-52.3264-69.5808-136.56064-91.8016l7.40352-28.0576c100.52608 26.51136 158.17728 70.1952 158.17728 119.8592-0.02048 80.85504-159.32416 144.19968-362.69056 144.19968z" p-id="2716"></path><path d="M517.12 401.55136m-81.92 0a81.92 81.92 0 1 0 163.84 0 81.92 81.92 0 1 0-163.84 0Z" p-id="2717"></path></svg>