<svg t="1695363196217" class="icon" viewBox="0 0 1024 1024" version="1.1" xmlns="http://www.w3.org/2000/svg" p-id="71420" width="64" height="64"><path d="M128 170.666667a42.666667 42.666667 0 0 1 42.666667-42.666667h256a42.666667 42.666667 0 0 1 42.666666 42.666667v256a42.666667 42.666667 0 0 1-42.666666 42.666666H170.666667a42.666667 42.666667 0 0 1-42.666667-42.666666V170.666667z m85.333333 42.666666v170.666667h170.666667v-170.666667h-170.666667z" fill="#ffffff" p-id="71421"></path><path d="M597.333333 341.333333h-170.666666v-85.333333h170.666666v85.333333zM597.333333 768h-170.666666v-85.333333h170.666666v85.333333zM341.333333 426.666667v170.666666h-85.333333v-170.666666h85.333333zM768 426.666667v170.666666h-85.333333v-170.666666h85.333333z" fill="#ffffff" p-id="71422"></path><path d="M128 597.333333a42.666667 42.666667 0 0 1 42.666667-42.666666h256a42.666667 42.666667 0 0 1 42.666666 42.666666v256a42.666667 42.666667 0 0 1-42.666666 42.666667H170.666667a42.666667 42.666667 0 0 1-42.666667-42.666667V597.333333z m85.333333 42.666667v170.666667h170.666667v-170.666667h-170.666667zM554.666667 170.666667a42.666667 42.666667 0 0 1 42.666666-42.666667h256a42.666667 42.666667 0 0 1 42.666667 42.666667v256a42.666667 42.666667 0 0 1-42.666667 42.666666H597.333333a42.666667 42.666667 0 0 1-42.666666-42.666666V170.666667z m85.333333 42.666666v170.666667h170.666667v-170.666667h-170.666667zM554.666667 597.333333a42.666667 42.666667 0 0 1 42.666666-42.666666h256a42.666667 42.666667 0 0 1 42.666667 42.666666v256a42.666667 42.666667 0 0 1-42.666667 42.666667H597.333333a42.666667 42.666667 0 0 1-42.666666-42.666667V597.333333z m85.333333 42.666667v170.666667h170.666667v-170.666667h-170.666667z" fill="#ffffff" p-id="71423"></path></svg>