<svg t="1695363510513" class="icon" viewBox="0 0 1024 1024" version="1.1" xmlns="http://www.w3.org/2000/svg" p-id="80066" width="64" height="64"><path d="M817.425067 657.8176c7.509333 0 13.789867 6.144 13.789866 13.858133v36.727467c11.195733 2.935467 21.7088 7.304533 31.402667 13.038933l26.077867-26.0096c5.393067-5.461333 14.1312-5.461333 19.456 0l24.098133 24.098134c5.461333 5.3248 5.461333 14.062933 0 19.524266l-26.0096 25.941334c5.7344 9.762133 10.103467 20.2752 13.038933 31.470933h36.727467c7.714133 0 13.789867 6.212267 13.789867 13.789867v34.065066c0 7.5776-6.144 13.789867-13.789867 13.789867h-36.727467a122.606933 122.606933 0 0 1-13.038933 31.402667l26.077867 26.146133a13.789867 13.789867 0 0 1 0 19.387733l-24.1664 24.1664a13.789867 13.789867 0 0 1-19.387734 0l-26.146133-26.077866a122.606933 122.606933 0 0 1-31.402667 13.038933v36.795733a13.7216 13.7216 0 0 1-13.789866 13.7216h-34.133334a13.7216 13.7216 0 0 1-13.653333-13.7216v-36.795733a122.606933 122.606933 0 0 1-31.470933-12.970667l-26.077867 25.941334a13.7216 13.7216 0 0 1-19.456 0l-24.098133-24.098134a13.7216 13.7216 0 0 1 0-19.456l26.0096-26.0096a122.606933 122.606933 0 0 1-13.038934-31.402666h-36.727466a13.789867 13.789867 0 0 1-13.858134-13.858134v-34.065066c0-7.509333 6.144-13.789867 13.858134-13.789867h36.727466c2.935467-11.195733 7.304533-21.7088 13.038934-31.402667l-26.077867-26.077866a13.789867 13.789867 0 0 1 0-19.456l24.1664-24.1664a13.789867 13.789867 0 0 1 19.387733 0l26.146134 26.077866c9.693867-5.7344 20.206933-10.103467 31.402666-12.970666v-36.864c0-7.645867 6.212267-13.789867 13.7216-13.789867z m-17.066667 101.1712a68.266667 68.266667 0 1 0-0.068267 136.533333 68.266667 68.266667 0 0 0 0.136534-136.533333zM407.893333 64.375467l19.2512 57.1392c13.9264 0 27.170133 1.092267 41.301334 3.413333L495.4112 70.997333a33.792 33.792 0 0 1 39.7312-17.408c14.813867 4.096 29.149867 9.557333 43.144533 15.9744l30.5152 15.496534c13.653333 7.441067 26.487467 15.7696 38.570667 25.122133a34.133333 34.133333 0 0 1 9.6256 42.325333l-27.374933 54.545067c11.0592 11.332267 19.319467 20.8896 26.624 30.583467l57.7536-18.978134a34.133333 34.133333 0 0 1 41.3696 17.476267c9.147733 18.773333 16.520533 38.229333 22.186666 57.7536 5.870933 18.295467 10.786133 38.434133 14.062934 58.641067a34.269867 34.269867 0 0 1-22.801067 37.888l-55.842133 18.705066a54.613333 54.613333 0 0 1-0.750934 8.192 245.828267 245.828267 0 0 1-3.003733 32.768l54.272 27.374934a34.065067 34.065067 0 0 1 17.476267 39.936c-5.051733 17.749333-11.741867 35.0208-19.933867 51.268266l-7.304533 14.677334c-8.465067 16.384-18.295467 31.675733-29.354667 46.08a34.133333 34.133333 0 0 1-42.461867 9.693866l-54.0672-27.2384c-2.525867 2.525867-4.846933 4.846933-7.304533 7.031467a247.125333 247.125333 0 0 1-23.7568 19.456l18.705067 57.890133a34.133333 34.133333 0 0 1-16.315734 40.618667 338.1248 338.1248 0 0 1-57.617066 24.439467 356.010667 356.010667 0 0 1-60.074667 14.472533 34.133333 34.133333 0 0 1-37.6832-23.7568l-16.9984-55.296c-13.038933 0-26.4192-1.160533-40.891733-3.413333l-27.4432 53.930666a34.269867 34.269867 0 0 1-40.004267 17.271467 299.4176 299.4176 0 0 1-50.5856-19.797333l-14.677333-7.509334a303.581867 303.581867 0 0 1-46.148267-29.2864 34.133333 34.133333 0 0 1-9.693867-42.325333l26.760534-53.248a275.0464 275.0464 0 0 1-29.0816-32.9728l-58.026667 19.114667a34.133333 34.133333 0 0 1-41.233067-17.066667 355.054933 355.054933 0 0 1-22.664533-56.661333l-13.7216-56.661334a34.133333 34.133333 0 0 1 22.528-40.413866l56.32-18.568534v-0.341333c0-4.096 0.477867-8.123733 1.024-12.151467a446.464 446.464 0 0 1 1.570133-15.701333 466.261333 466.261333 0 0 1 1.570134-13.1072L88.541867 340.650667a34.133333 34.133333 0 0 1-17.408-40.004267c4.096-14.336 9.079467-28.4672 15.018666-42.1888l15.633067-30.72c8.3968-14.609067 16.725333-27.0336 25.8048-38.912a34.4064 34.4064 0 0 1 42.461867-9.898667l53.589333 27.101867a296.686933 296.686933 0 0 1 31.197867-27.0336L235.997867 121.992533a34.133333 34.133333 0 0 1 16.384-40.7552c18.568533-9.966933 38.229333-18.158933 58.094933-24.439466l56.32-14.7456a33.9968 33.9968 0 0 1 40.96 22.3232z m-54.545066 51.882666l-23.893334 6.144c-6.144 2.048-12.561067 4.369067-18.978133 7.031467l17.476267 52.6336a34.269867 34.269867 0 0 1-14.882134 39.936 222.139733 222.139733 0 0 0-54.6816 47.3088 36.317867 36.317867 0 0 1-42.257066 9.352533l-50.176-25.258666-4.096 6.9632-13.653334 27.170133c-0.8192 1.774933-1.6384 3.549867-2.389333 5.461333l50.107733 25.258667a34.2016 34.2016 0 0 1 17.8176 38.5024c-2.321067 9.284267-3.413333 18.773333-4.5056 28.398933l-1.2288 12.356267a438.954667 438.954667 0 0 1-0.955733 8.874667l0.2048 7.509333c0.136533 0.682667 1.024 8.192 1.024 9.079467l0.068267 6.9632a34.6112 34.6112 0 0 1-23.3472 35.771733l-51.677867 17.066667 5.870933 24.029866c1.6384 5.461333 3.618133 11.264 5.9392 17.066667l51.677867-17.066667a34.269867 34.269867 0 0 1 39.458133 13.994667l6.690134 8.669867c9.147733 11.946667 14.677333 19.114667 20.957866 25.6 7.918933 8.669867 15.837867 15.906133 24.1664 22.664533a34.133333 34.133333 0 0 1 9.0112 41.847467l-25.122133 49.9712c4.096 2.389333 8.192 4.7104 12.356267 6.894933l14.199466 7.099733c4.164267 2.116267 8.465067 4.096 12.765867 5.9392l25.531733-50.039466a33.9968 33.9968 0 0 1 39.1168-17.476267l7.168 1.2288a200.635733 200.635733 0 0 0 68.608 3.959467c14.9504 0 28.194133 9.693867 32.699734 24.1664l15.7696 51.063466c6.826667-1.774933 13.653333-3.754667 20.206933-6.007466 7.099733-2.321067 14.1312-4.778667 21.026133-7.645867l-17.066666-53.0432a34.133333 34.133333 0 0 1 14.5408-39.662933c9.284267-6.280533 13.9264-9.898667 18.568533-13.448534a196.266667 196.266667 0 0 0 29.832533-27.2384l5.256534-5.256533c10.24-12.288 29.354667-17.681067 43.554133-10.581333l49.9712 25.122133c2.4576-4.096 4.778667-8.123733 6.9632-12.288l7.099733-14.267733c2.048-4.232533 4.096-8.669867 6.007467-13.038934l-49.9712-25.053866a34.269867 34.269867 0 0 1-17.544533-39.799467l1.6384-10.6496a233.472 233.472 0 0 0 3.822933-35.157333c0-1.365333 0.477867-5.870933 0.682667-7.304534l-0.8192-12.970666c-1.6384-15.906133 7.918933-36.522667 23.005866-41.642667l51.473067-17.2032a294.980267 294.980267 0 0 0-6.144-21.435733 326.314667 326.314667 0 0 0-6.621867-20.48l-51.746133 16.9984a34.133333 34.133333 0 0 1-39.936-14.813867c-0.477867-0.546133-5.666133-7.509333-6.075733-8.192a232.789333 232.789333 0 0 0-25.463467-31.1296l-10.4448-10.376533c-1.911467-1.911467-3.754667-3.959467-5.802667-5.666134a33.9968 33.9968 0 0 1-8.6016-41.5744l25.053867-49.902933-6.007467-3.413333-26.965333-13.7216c-2.2528-1.024-4.437333-2.048-6.621867-2.935467l-25.122133 49.834667a33.928533 33.928533 0 0 1-38.570667 17.8176l-6.826666-1.2288A238.7968 238.7968 0 0 0 427.144533 189.781333c-8.192 0.2048-14.472533 0.4096-20.8896 1.024a34.338133 34.338133 0 0 1-35.703466-23.1424l-17.2032-51.4048z m72.430933 194.9696a97.621333 97.621333 0 1 1 0 195.1744 97.621333 97.621333 0 0 1 0-195.1744z m0 65.058134a32.5632 32.5632 0 1 0-0.068267 65.1264 32.5632 32.5632 0 0 0 0.068267-65.1264z" fill="#ffffff" p-id="80067"></path></svg>