<svg t="1695355440795" class="icon" viewBox="0 0 1024 1024" version="1.1" xmlns="http://www.w3.org/2000/svg" p-id="40465" width="64" height="64"><path d="M884.3 445.9h-7l-142.9 76.7v-74.2c0-31.1-25.3-56.3-56.3-56.3H118.5c-31.1 0-56.3 25.3-56.3 56.3v435.3c0 31.1 25.3 56.3 56.3 56.3H678c31.1 0 56.3-25.3 56.3-56.3v-45.6l142.9 76.7h7c40.3 0 73.1-32.8 73.1-73.1V519c0.1-40.3-32.7-73.1-73-73.1zM226.7 85.5c-73.6 0-133.5 59.9-133.5 133.5s59.9 133.5 133.5 133.5S360.2 292.6 360.2 219 300.3 85.5 226.7 85.5zM571.7 85.5c-73.6 0-133.5 59.9-133.5 133.5s59.9 133.5 133.5 133.5S705.2 292.6 705.2 219 645.4 85.5 571.7 85.5z" fill="#ffffff" p-id="40466"></path></svg>