<svg t="1695354028563" class="icon" viewBox="0 0 1024 1024" version="1.1" xmlns="http://www.w3.org/2000/svg" p-id="11148" width="64" height="64"><path d="M196.7 230.4h453.5v50H196.7zM196.7 487.4h280.4v50H196.7zM196.7 743.8h89.4v50h-89.4z" fill="#ffffff" p-id="11149"></path><path d="M135.2 255.4m-37.5 0a37.5 37.5 0 1 0 75 0 37.5 37.5 0 1 0-75 0Z" fill="#ffffff" p-id="11150"></path><path d="M135.7 512.1m-37.5 0a37.5 37.5 0 1 0 75 0 37.5 37.5 0 1 0-75 0Z" fill="#ffffff" p-id="11151"></path><path d="M135.7 768.8m-37.5 0a37.5 37.5 0 1 0 75 0 37.5 37.5 0 1 0-75 0Z" fill="#ffffff" p-id="11152"></path><path d="M710.1 385.6l65.1 65.1L421.8 804l-103.7 38.6 38.6-103.7 353.4-353.3m0-70.7L313.7 711.3l-80.5 216.3 216.3-80.5 396.4-396.4-135.8-135.8zM757.4 266.4c41.2-41.2 105.2-44.1 142.8-6.5s34.8 101.6-6.5 142.8" fill="#ffffff" p-id="11153"></path></svg>