<?xml version="1.0" standalone="no"?><!DOCTYPE svg PUBLIC "-//W3C//DTD SVG 1.1//EN" "http://www.w3.org/Graphics/SVG/1.1/DTD/svg11.dtd"><svg t="1690364543840" class="icon" viewBox="0 0 1024 1024" version="1.1" xmlns="http://www.w3.org/2000/svg" p-id="41103" xmlns:xlink="http://www.w3.org/1999/xlink" width="128" height="128"><path d="M523.431564 191.953455c-111.709091 0-202.267927 89.944436-202.267928 200.964654 0 34.573964 17.966545 78.941091 50.138764 131.667782a964.998982 964.998982 0 0 0 46.731636 68.980364 1504.293236 1504.293236 0 0 0 65.349819 82.180654 1464.7296 1464.7296 0 0 0 29.78909 33.903709l10.24 11.115055 10.277237-11.115055a1464.7296 1464.7296 0 0 0 29.789091-33.903709 1504.293236 1504.293236 0 0 0 65.349818-82.180654 965.0176 965.0176 0 0 0 46.713018-68.980364c32.172218-52.726691 50.138764-97.093818 50.138764-131.667782 0-111.020218-90.577455-200.983273-202.249309-200.983273z m-18.804364 465.696581a1476.8128 1476.8128 0 0 1-64.1024-80.635345 937.630255 937.630255 0 0 1-45.372509-66.9696c-29.696-48.667927-46.061382-89.050764-46.061382-117.108364 0-95.567127 78.0288-173.074618 174.340655-173.074618 96.293236 0 174.322036 77.507491 174.322036 173.056 0 28.076218-16.365382 68.459055-46.061382 117.126982a937.648873 937.648873 0 0 1-45.353891 66.9696 1476.831418 1476.831418 0 0 1-82.906763 102.288291 1462.272 1462.272 0 0 1-18.804364-21.652946z" fill="#0CBEBD" p-id="41104"></path><path d="M523.431564 485.9904c-49.747782 0-90.056145-40.569018-90.056146-90.614691s40.308364-90.614691 90.056146-90.614691c49.710545 0 90.056145 40.569018 90.056145 90.614691s-40.326982 90.614691-90.056145 90.614691z" fill="#0CBEBD" p-id="41105"></path><path d="M523.431564 499.954036c-57.474327 0-104.019782-46.843345-104.019782-104.578327s46.545455-104.578327 104.019782-104.578327c57.455709 0 104.019782 46.843345 104.019781 104.578327s-46.545455 104.578327-104.019781 104.578327z m0-27.927272c42.002618 0 76.092509-34.294691 76.092509-76.651055s-34.089891-76.651055-76.092509-76.651054c-42.021236 0-76.092509 34.294691-76.092509 76.651054s34.071273 76.651055 76.092509 76.651055z" fill="#0CBEBD" p-id="41106"></path><path d="M809.295127 433.487127a13.963636 13.963636 0 0 1 17.929309 11.506037l0.111709 1.8432v360.578327a13.963636 13.963636 0 0 1-8.471272 12.846545l-1.973528 0.670255-199.903418 52.000582a13.963636 13.963636 0 0 1-5.901963 0.242036l-1.936291-0.484073-211.502546-68.868654-168.122182 81.733818a13.963636 13.963636 0 0 1-19.940072-10.668218l-0.130328-1.899055V512.930909a13.963636 13.963636 0 0 1 7.48451-12.381091l1.768727-0.781963 73.169454-26.177164a13.963636 13.963636 0 0 1 11.133673 25.525527l-1.731491 0.763346-63.916218 22.863127V850.664727l153.171782-74.435491a13.963636 13.963636 0 0 1 8.340945-1.210181l2.085237 0.50269 212.936145 69.33411 185.511564-48.23971V465.696582l-42.114328 12.865163a13.963636 13.963636 0 0 1-16.756363-7.503127l-0.670255-1.768727a13.963636 13.963636 0 0 1 7.503128-16.756364l1.768727-0.670254 60.136727-18.376146z" fill="#0CBEBD" p-id="41107"></path></svg>