<?xml version="1.0" standalone="no"?><!DOCTYPE svg PUBLIC "-//W3C//DTD SVG 1.1//EN" "http://www.w3.org/Graphics/SVG/1.1/DTD/svg11.dtd"><svg class="icon" width="200px" height="200.00px" viewBox="0 0 1024 1024" version="1.1" xmlns="http://www.w3.org/2000/svg"><path fill="#333333" d="M512 67.008a16 16 0 0 1 15.744 13.12l0.256 2.88V128.32c199.744 8.192 360.128 168.96 367.712 368.864h46.464a16 16 0 0 1 2.88 31.744l-2.88 0.256h-46.56c-8.768 198.816-168.64 358.336-367.616 366.496v47.68a16 16 0 0 1-31.744 2.88l-0.256-2.88v-47.68c-198.976-8.16-358.848-167.68-367.616-366.496H81.824a16 16 0 0 1-2.88-31.744l2.88-0.256h46.464C135.872 297.28 296.256 136.544 495.968 128.32l0.032-45.312a16 16 0 0 1 16-16z m16 93.344v114.656a16 16 0 0 1-31.744 2.88l-0.256-2.88-0.032-114.656c-182.08 8.16-328.096 154.624-335.68 336.832h113.536a16 16 0 0 1 2.88 31.744l-2.88 0.256H160.416c8.704 181.12 154.272 326.336 335.552 334.464l0.032-112.288a16 16 0 0 1 31.744-2.88l0.256 2.88v112.288c181.28-8.128 326.88-153.344 335.584-334.464h-113.408a16 16 0 0 1-2.88-31.744l2.88-0.256h113.504C856.128 314.944 710.08 168.512 528 160.32zM512 416a96 96 0 1 1 0 192 96 96 0 0 1 0-192z m0 32a64 64 0 1 0 0 128 64 64 0 0 0 0-128z" /></svg>