<?xml version="1.0" standalone="no"?><!DOCTYPE svg PUBLIC "-//W3C//DTD SVG 1.1//EN" "http://www.w3.org/Graphics/SVG/1.1/DTD/svg11.dtd"><svg t="1690364671108" class="icon" viewBox="0 0 1024 1024" version="1.1" xmlns="http://www.w3.org/2000/svg" p-id="49215" xmlns:xlink="http://www.w3.org/1999/xlink" width="128" height="128"><path d="M645.632 329.728c-18.432-14.336-47.616-21.50400001-86.528-21.50400001H429.568V491.52h130.048c39.93600001 0 68.60800001-7.68 87.04-21.50400001 18.432-14.336 27.64800001-38.4 27.648-71.16799999-0.512-32.256-10.24-55.296-28.672-69.12zM503.808 6.144C241.152 6.144 23.55199999 217.6 23.55199999 480.25599999s217.6 473.6 480.25600001 473.60000001 480.25600001-210.944 480.25600001-473.59999999S772.096 6.144 503.808 6.144zM564.736 568.32000001H429.568v209.40799999H339.968V231.936h226.30400001c131.584 0 197.63200001 55.808 197.63199999 167.424 0.512 112.64-66.048 168.96000001-199.168 168.96000001z" fill="#0CBEBD" p-id="49216"></path></svg>