<?xml version="1.0" encoding="UTF-8"?>
<!DOCTYPE svg PUBLIC "-//W3C//DTD SVG 1.1//EN" "http://www.w3.org/Graphics/SVG/1.1/DTD/svg11.dtd">
<!-- Creator: CorelDRAW 2020 (64-Bit 评估版) -->
<svg xmlns="http://www.w3.org/2000/svg" xml:space="preserve" width="43.6163mm" height="37.8774mm" version="1.1" style="shape-rendering:geometricPrecision; text-rendering:geometricPrecision; image-rendering:optimizeQuality; fill-rule:evenodd; clip-rule:evenodd"
viewBox="0 0 103.72 90.07"
 xmlns:xlink="http://www.w3.org/1999/xlink"
 xmlns:xodm="http://www.corel.com/coreldraw/odm/2003">
 <defs>
  <style type="text/css">
   <![CDATA[
    .str1 {stroke:#0B1D35;stroke-width:3.36;stroke-miterlimit:22.9256}
    .str0 {stroke:#0AF5B6;stroke-width:0.48;stroke-miterlimit:22.9256}
    .fil0 {fill:#0AF5B6}
   ]]>
  </style>
 </defs>
 <g id="图层_x0020_1">
  <metadata id="CorelCorpID_0Corel-Layer"/>
  <g id="_2345459974752">
   <g>
    <g>
     <path class="fil0" d="M42.29 53.41c0,-6.08 0.8,-9.76 4.27,-14.86 0.36,-0.53 0.79,-1.14 1.22,-1.6l1.33 -1.49c4.25,-3.85 9.37,-6.82 15.54,-6.82 6.33,0 10.01,0.97 14.87,4.27 1.94,1.32 2.86,2.45 4.32,3.94 1.11,1.14 2.67,3.7 3.32,5.14 3.03,6.74 3.15,13.53 0.06,20.29 -3.45,7.56 -11.8,13.49 -20.15,13.49 -6.29,0 -9.87,-0.88 -14.87,-4.27 -1.96,-1.33 -2.81,-2.38 -4.32,-3.94 -0.47,-0.48 -0.84,-1 -1.24,-1.58 -2.35,-3.4 -4.35,-7.98 -4.35,-12.57zm1.81 -31.82c-1.58,0 -8.86,7.28 -8.86,8.86 0,1.01 0.56,1.51 1.19,2.23 0.23,0.27 0.3,0.36 0.57,0.64 2.89,2.99 3.24,2.26 1.59,5.52 -0.52,1.02 -0.98,2.18 -1.37,3.26 -1.57,4.37 -0.78,2.66 -6.21,3.05 -3.41,0.25 -3.03,3.4 -3.03,7.65 0,9.09 2.65,5.63 7.44,6.46 1.4,0.24 1.68,3.33 3.1,6.17 0.45,0.91 1.42,2.2 0.86,3.19l-1.66 1.76c-0.91,0.87 -2.49,2.23 -2.49,3.57 0,1.58 7.28,8.86 8.86,8.86 1.94,0 3.83,-3.15 5.21,-4.07 1.18,-0.79 3.52,1.03 6.45,2.08 4.45,1.6 2.66,0.73 3.05,6.21 0.25,3.41 3.4,3.03 7.65,3.03 9.09,0 5.63,-2.65 6.46,-7.44 0.23,-1.32 3.34,-1.79 6.16,-3.1 3.15,-1.46 2.37,-1.79 5.55,1.43 0.67,0.68 1.76,1.86 2.97,1.86 1.58,0 8.86,-7.28 8.86,-8.86 0,-1.95 -3.17,-3.86 -4.07,-5.21 -0.79,-1.18 1.01,-3.47 2.08,-6.45 0.36,-1 0.6,-2.73 1.63,-3 2.13,-0.57 6.5,1.19 7.26,-2 0.5,-2.1 0.39,-7.46 0.1,-9.68 -0.46,-3.52 -3.87,-2.22 -6.81,-2.46 -1.81,-0.14 -1.88,-2.58 -3.42,-6.04 -0.89,-1.99 -2.03,-2.68 0.13,-4.51 0.31,-0.26 0.36,-0.29 0.62,-0.58l0.37 -0.44c0.91,-1.02 -0.73,0.79 0.19,-0.21 0.71,-0.77 1.91,-1.64 1.91,-2.92 0,-1.58 -7.3,-8.86 -8.86,-8.86 -1.95,0 -3.85,3.17 -5.21,4.07 -1.18,0.79 -3.52,-1.03 -6.45,-2.08 -4.37,-1.57 -2.66,-0.78 -3.05,-6.21 -0.11,-1.49 -0.58,-2.35 -1.95,-2.68 -1.93,-0.46 -8.19,-0.48 -10.19,0 -1.34,0.32 -1.9,1.15 -1.96,2.67 -0.33,7.46 1.43,3.87 -6.31,7.59 -3.79,1.82 -2.32,1.12 -6.26,-2.26l-0.43 -0.37c-0.49,-0.41 -0.88,-0.72 -1.69,-0.72z"/>
     <path class="fil0" d="M62.43 44.75c2.02,3.02 9.14,2.95 4.92,9.15 -3.53,5.19 -7.2,-1.08 -9.75,-1.3 -0.46,0.95 -0.4,1.92 -0.4,3.02 0,4.81 6.13,8.63 10.85,6.81 0.76,-0.29 1.03,-0.56 1.79,0.08 1.87,1.56 6.32,6.82 8.11,8.02 2.1,-1.41 3.49,-2.67 5.06,-4.6 0.54,-0.67 0.98,-1.28 1.38,-2.04l-8.51 -8.61c0.51,-1.92 0.85,-1.19 0.85,-4.08 0,-4.28 -4.83,-8.06 -9.26,-8.06 -2.69,0 -2.9,0.18 -5.03,1.61z"/>
    </g>
    <circle class="fil0 str0" cx="69.59" cy="56.75" r="17.49"/>
   </g>
   <circle class="fil0 str1" cx="65.85" cy="52.2" r="22.63"/>
   <g>
    <g>
     <path class="fil0" d="M7.11 19.4c0,-3.02 0.4,-4.84 2.12,-7.38 0.18,-0.26 0.39,-0.57 0.61,-0.79l0.66 -0.74c2.11,-1.91 4.65,-3.39 7.71,-3.39 3.14,0 4.97,0.48 7.38,2.12 0.96,0.65 1.42,1.21 2.14,1.95 0.55,0.57 1.33,1.84 1.65,2.55 1.5,3.35 1.56,6.72 0.03,10.08 -1.71,3.75 -5.86,6.7 -10,6.7 -3.13,0 -4.9,-0.44 -7.38,-2.12 -0.97,-0.66 -1.39,-1.18 -2.14,-1.96 -0.23,-0.24 -0.42,-0.5 -0.61,-0.79 -1.17,-1.69 -2.16,-3.96 -2.16,-6.24zm0.9 -15.8c-0.78,0 -4.4,3.62 -4.4,4.4 0,0.5 0.28,0.75 0.59,1.11 0.11,0.13 0.15,0.18 0.28,0.32 1.44,1.48 1.61,1.12 0.79,2.74 -0.26,0.51 -0.48,1.08 -0.68,1.62 -0.78,2.17 -0.39,1.32 -3.08,1.52 -1.7,0.12 -1.5,1.69 -1.5,3.8 0,4.51 1.32,2.8 3.69,3.21 0.7,0.12 0.83,1.65 1.54,3.06 0.23,0.45 0.7,1.09 0.43,1.58l-0.83 0.87c-0.45,0.43 -1.23,1.11 -1.23,1.78 0,0.78 3.62,4.4 4.4,4.4 0.96,0 1.9,-1.56 2.59,-2.02 0.59,-0.39 1.75,0.51 3.2,1.03 2.21,0.79 1.32,0.36 1.52,3.08 0.12,1.7 1.69,1.5 3.8,1.5 4.51,0 2.8,-1.32 3.21,-3.69 0.11,-0.65 1.66,-0.89 3.06,-1.54 1.56,-0.73 1.17,-0.89 2.76,0.71 0.33,0.34 0.87,0.92 1.48,0.92 0.78,0 4.4,-3.62 4.4,-4.4 0,-0.97 -1.57,-1.91 -2.02,-2.59 -0.39,-0.59 0.5,-1.72 1.03,-3.2 0.18,-0.49 0.3,-1.35 0.81,-1.49 1.06,-0.28 3.23,0.59 3.61,-0.99 0.25,-1.04 0.19,-3.7 0.05,-4.81 -0.23,-1.75 -1.92,-1.1 -3.38,-1.22 -0.9,-0.07 -0.93,-1.28 -1.7,-3 -0.44,-0.99 -1.01,-1.33 0.06,-2.24 0.15,-0.13 0.18,-0.14 0.31,-0.29l0.18 -0.22c0.45,-0.51 -0.36,0.39 0.1,-0.1 0.35,-0.38 0.95,-0.82 0.95,-1.45 0,-0.78 -3.62,-4.4 -4.4,-4.4 -0.97,0 -1.91,1.57 -2.59,2.02 -0.59,0.39 -1.75,-0.51 -3.2,-1.03 -2.17,-0.78 -1.32,-0.39 -1.52,-3.08 -0.05,-0.74 -0.29,-1.17 -0.97,-1.33 -0.96,-0.23 -4.07,-0.24 -5.06,0 -0.67,0.16 -0.94,0.57 -0.97,1.33 -0.16,3.7 0.71,1.92 -3.13,3.77 -1.88,0.91 -1.15,0.55 -3.11,-1.12l-0.21 -0.19c-0.25,-0.21 -0.44,-0.36 -0.84,-0.36z"/>
     <path class="fil0" d="M17.11 15.1c1,1.5 4.54,1.47 2.44,4.54 -1.75,2.58 -3.57,-0.54 -4.84,-0.64 -0.23,0.47 -0.2,0.95 -0.2,1.5 0,2.39 3.04,4.29 5.39,3.38 0.38,-0.15 0.51,-0.28 0.89,0.04 0.93,0.78 3.14,3.39 4.02,3.98 1.04,-0.7 1.73,-1.33 2.51,-2.29 0.27,-0.33 0.49,-0.64 0.69,-1.01l-4.22 -4.28c0.25,-0.95 0.42,-0.59 0.42,-2.02 0,-2.12 -2.4,-4 -4.6,-4 -1.33,0 -1.44,0.09 -2.5,0.8z"/>
    </g>
    <circle class="fil0 str0" cx="20.66" cy="21.06" r="8.69"/>
   </g>
   <circle class="fil0 str1" cx="18.8" cy="18.81" r="11.24"/>
  </g>
 </g>
</svg>
