<?xml version="1.0" standalone="no"?><!DOCTYPE svg PUBLIC "-//W3C//DTD SVG 1.1//EN" "http://www.w3.org/Graphics/SVG/1.1/DTD/svg11.dtd"><svg t="1684399614019" class="icon" viewBox="0 0 1024 1024" version="1.1" xmlns="http://www.w3.org/2000/svg" p-id="5193" xmlns:xlink="http://www.w3.org/1999/xlink" width="48" height="48"><path d="M808.11 298.67L512 463.36 215.89 298.67 512 133.97l296.11 164.7z" fill="#BFBFBF" p-id="5194"></path><path d="M937 287.57a8.07 8.07 0 0 0-1.28-3.41 33 33 0 0 0-3-6.83c-0.42-1.28-1.7-2.13-2.56-3.41a63.48 63.48 0 0 0-3.84-5.55 22.74 22.74 0 0 1-3.41-2.56c-1.71-1.28-3.41-3-5.12-3.84-0.43 0-0.43-0.42-0.85-0.42l-384-213.34a42.92 42.92 0 0 0-41.82 0l-384 213.34c-0.42 0-0.42 0.42-0.85 0.42-1.71 0.86-3.41 2.56-5.12 3.84a22.74 22.74 0 0 1-3.41 2.56 63.48 63.48 0 0 0-3.84 5.55c-0.86 1.28-2.14 2.13-2.56 3.41a33 33 0 0 0-3 6.83 8.07 8.07 0 0 0-1.34 3.41 31.88 31.88 0 0 0-1.71 11.1v426.66a42.71 42.71 0 0 0 21.76 37.12l383.19 212.91 0.85 0.43a36.59 36.59 0 0 0 6 2.56c1.28 0.42 2.56 1.27 4.26 1.7a45.11 45.11 0 0 0 21.34 0c1.7-0.43 3-1.28 4.26-1.7a36.59 36.59 0 0 0 6-2.56l0.85-0.43 383.11-212.91a42.71 42.71 0 0 0 21.76-37.12V298.67a31.88 31.88 0 0 0-1.67-11.1zM512 463.36L215.89 298.67 512 134l296.11 164.7z m-42.67 402.77l-298.66-166v-329l298.66 166z m384-166l-298.66 166v-329l298.66-166z" p-id="5195"></path></svg>