<svg t="1695865961451" class="icon" viewBox="0 0 1024 1024" version="1.1" xmlns="http://www.w3.org/2000/svg" p-id="5091" width="128" height="128"><path d="M512 912c-220.8 0-400-179.2-400-400s179.2-400 400-400 400 179.2 400 400-179.2 400-400 400z m0-752c-194.4 0-352 157.6-352 352s157.6 352 352 352 352-157.6 352-352-157.6-352-352-352z" fill="#d81e06" p-id="5092"></path><path d="M512 576c-13.6 0-24-10.4-24-24V304c0-13.6 10.4-24 24-24s24 10.4 24 24v248c0 13.6-10.4 24-24 24zM512 741.6c-13.6 0-24-10.4-24-24v-32c0-13.6 10.4-24 24-24s24 10.4 24 24v32c0 13.6-10.4 24-24 24z" fill="#d81e06" p-id="5093"></path></svg>