<?xml version="1.0" standalone="no"?><!DOCTYPE svg PUBLIC "-//W3C//DTD SVG 1.1//EN" "http://www.w3.org/Graphics/SVG/1.1/DTD/svg11.dtd"><svg class="icon" width="200px" height="200.00px" viewBox="0 0 1024 1024" version="1.1" xmlns="http://www.w3.org/2000/svg"><path fill="#333333" d="M906.24 1024h-235.52c-20.48 0-38.4-17.92-38.4-38.4s17.92-38.4 38.4-38.4h235.52c20.48 0 38.4-17.92 38.4-38.4v-197.12c0-20.48 17.92-38.4 38.4-38.4s38.4 17.92 38.4 38.4v197.12c2.56 61.44-51.2 115.2-115.2 115.2z m-591.36 0H117.76C51.2 1024 0 970.24 0 906.24v-197.12c0-20.48 17.92-38.4 38.4-38.4s38.4 17.92 38.4 38.4v197.12c0 20.48 17.92 38.4 38.4 38.4h197.12c20.48 0 38.4 17.92 38.4 38.4 2.56 23.04-15.36 38.4-35.84 40.96zM38.4 355.84c-20.48 0-38.4-17.92-38.4-38.4V117.76C0 53.76 53.76 0 117.76 0h197.12c20.48 0 38.4 17.92 38.4 38.4S335.36 76.8 314.88 76.8H117.76c-20.48 0-38.4 17.92-38.4 38.4v197.12c0 23.04-17.92 40.96-40.96 43.52z m944.64 0c-20.48 0-38.4-17.92-38.4-38.4V117.76c0-20.48-17.92-38.4-38.4-38.4h-235.52c-20.48 0-38.4-17.92-38.4-38.4S647.68 0 668.16 0h235.52c66.56 0 117.76 51.2 117.76 117.76v197.12c2.56 20.48-15.36 38.4-38.4 40.96zM512 227.84c-97.28 0-176.64 79.36-176.64 176.64s79.36 176.64 176.64 176.64 176.64-79.36 176.64-176.64C691.2 307.2 609.28 227.84 512 227.84zM586.24 583.68c-23.04 0-48.64 71.68-74.24 71.68s-51.2-71.68-74.24-71.68c-140.8 23.04-243.2 110.08-243.2 212.48h640c-2.56-102.4-107.52-192-248.32-212.48z" /></svg>